<?xml version="1.0" standalone="no"?>
<!DOCTYPE svg PUBLIC "-//W3C//DTD SVG 20010904//EN"
 "http://www.w3.org/TR/2001/REC-SVG-20010904/DTD/svg10.dtd">
<svg version="1.0" xmlns="http://www.w3.org/2000/svg"
 width="504.000000pt" height="312.000000pt" viewBox="0 0 504.000000 312.000000"
 preserveAspectRatio="xMidYMid meet">

<g transform="translate(0.000000,312.000000) scale(0.100000,-0.100000)"
fill="#000000" stroke="none">
<path d="M2480 2876 c-25 -18 -161 -116 -302 -219 -292 -210 -308 -222 -308
-232 0 -4 22 -37 48 -74 27 -36 99 -135 160 -219 62 -84 112 -154 112 -157 0
-8 -104 -5 -115 3 -12 8 -56 67 -190 255 -49 69 -96 126 -103 127 -7 0 -70
-41 -140 -92 -70 -50 -192 -138 -270 -195 l-144 -103 -509 0 -509 0 0 -580 0
-580 628 -2 627 -3 72 -220 c40 -121 83 -251 95 -290 l23 -70 413 -3 412 -2 2
292 3 293 47 3 48 3 2 -293 3 -293 412 -3 412 -2 96 295 96 295 607 2 607 3 3
578 2 577 -492 0 -493 0 -200 145 c-110 80 -231 168 -268 195 -38 28 -74 50
-81 50 -7 0 -74 -85 -150 -189 -75 -104 -144 -192 -152 -195 -9 -3 -36 -6 -61
-6 -36 0 -44 3 -39 15 3 8 73 107 156 219 82 113 150 212 150 220 0 13 -640
486 -657 486 -4 0 -28 -16 -53 -34z m825 -1093 c60 -44 103 -83 101 -89 -3 -7
-37 -56 -76 -109 -70 -94 -72 -96 -93 -81 -38 28 -48 29 -77 7 -16 -11 -31
-21 -33 -21 -3 0 -39 48 -81 106 -71 98 -76 107 -59 119 10 7 59 43 108 79 50
36 93 66 97 66 4 0 55 -35 113 -77z m1323 42 c3 -3 -39 -75 -90 -155 -20 -30
-56 -90 -82 -134 l-46 -78 31 -67 c17 -36 39 -84 49 -106 68 -151 86 -187 117
-249 19 -37 31 -71 28 -74 -9 -9 -131 -15 -158 -8 -19 4 -36 33 -88 151 -38
88 -69 145 -77 145 -12 0 -14 -25 -11 -142 l4 -143 -77 -9 c-43 -4 -84 -6 -93
-2 -13 5 -15 60 -15 441 l0 435 96 0 96 0 -3 -97 c-3 -61 0 -98 6 -100 6 -2
28 27 50 64 21 38 49 84 61 103 l21 35 89 -4 c49 -1 90 -4 92 -6z m-3743 -127
c-5 -113 -9 -136 -25 -153 -26 -28 -25 -33 8 -37 l27 -3 -2 -269 c-1 -147 -5
-271 -8 -275 -8 -7 -441 -8 -448 -1 -3 3 -8 200 -12 438 l-8 432 237 0 236 0
-5 -132z m257 -225 l3 -358 113 -3 112 -3 0 -74 0 -74 -34 -6 c-45 -9 -358 -2
-373 8 -8 5 -12 119 -12 437 l0 430 94 0 95 0 2 -357z m445 117 c1 -129 2
-290 3 -357 l0 -123 60 0 60 0 2 178 c1 97 0 259 -1 360 l-4 182 87 0 86 0 -2
-437 -3 -438 -185 -3 c-102 -2 -204 0 -228 3 l-43 6 2 427 c1 235 3 431 6 435
3 4 39 7 81 5 l77 -3 2 -235z m783 170 l0 -70 -125 0 -126 0 3 -102 3 -103
108 -3 108 -3 -3 -57 -3 -57 -107 -3 -108 -3 0 -124 0 -125 125 0 126 0 -3
-77 -3 -78 -195 0 c-107 0 -203 3 -212 7 -17 7 -18 37 -18 438 l0 430 215 0
215 0 0 -70z m247 -277 c-1 -192 2 -354 6 -360 6 -9 40 -13 113 -13 115 0 115
0 89 63 -18 44 -22 42 129 91 l108 35 16 -40 c14 -36 18 -39 54 -39 l39 0 -3
-132 -3 -133 -132 -2 -133 -2 -17 49 c-10 28 -21 50 -25 50 -4 0 -8 -21 -10
-47 l-3 -48 -185 -2 c-102 0 -195 1 -207 3 l-23 4 0 435 0 435 95 0 94 0 -2
-347z m1448 192 l0 -150 -82 -3 -82 -3 -3 93 -3 93 -55 0 -55 0 0 -295 0 -295
55 0 55 0 3 98 3 97 79 0 c44 0 80 -1 81 -2 0 -2 3 -78 6 -170 5 -161 5 -166
-15 -177 -22 -12 -349 -15 -409 -5 l-32 6 -3 152 c-3 139 -4 151 -21 148 -10
-2 -70 14 -133 35 l-116 38 7 41 c5 37 3 44 -20 62 -14 11 -25 23 -25 27 0 14
141 205 151 205 5 0 37 -20 71 -45 34 -25 67 -44 73 -42 6 2 11 53 13 126 l3
121 227 -2 227 -3 0 -150z m-1090 -48 c94 -129 119 -170 108 -174 -7 -3 -22
-12 -34 -22 -20 -16 -21 -21 -11 -50 7 -19 10 -37 7 -41 -9 -14 -236 -83 -245
-74 -4 5 -25 60 -45 123 -26 80 -35 119 -28 130 12 19 195 151 208 150 6 0 24
-19 40 -42z m483 -372 c61 -20 112 -39 112 -42 0 -11 -71 -227 -81 -245 -9
-17 -23 -18 -142 -16 l-132 3 -3 133 -3 132 41 0 c41 0 45 4 64 63 3 10 12 16
19 14 6 -3 63 -22 125 -42z"/>
<path d="M599 1668 c-5 -13 -7 -101 -3 -131 l6 -38 56 3 57 3 5 48 c3 26 4 63
2 82 l-4 35 -59 0 c-32 0 -59 -1 -60 -2z"/>
<path d="M597 1328 c-3 -29 -4 -89 -3 -133 l3 -80 49 -6 c79 -10 79 -10 76
140 l-3 131 -58 0 -58 0 -6 -52z"/>
</g>
</svg>
